HIERARCHY
ROOT Hips
{
	OFFSET 0.000000 88.474243 0.000000
	CHANNELS 6 Xposition Yposition Zposition Zrotation Yrotation Xrotation 
	JOINT Hips_Spine
	{
		OFFSET 0.000000 0.000000 0.000000
		CHANNELS 3 Zrotation Yrotation Xrotation
		JOINT Spine
		{
			OFFSET 0.005100 8.711998 -0.691000
			CHANNELS 3 Zrotation Yrotation Xrotation
			JOINT Spine1
			{
				OFFSET -0.009200 8.660301 -1.275000
				CHANNELS 3 Zrotation Yrotation Xrotation
				JOINT Spine2
				{
					OFFSET 0.006300 9.852501 -1.857000
					CHANNELS 3 Zrotation Yrotation Xrotation
					JOINT Spine2_Neck
					{
						OFFSET 0.000000 0.000000 0.000000
						CHANNELS 3 Zrotation Yrotation Xrotation
						JOINT Neck
						{
							OFFSET 0.016300 11.420799 -0.263300
							CHANNELS 3 Zrotation Yrotation Xrotation
							End Site #name: Head
							{
								OFFSET -0.019200 9.262405 2.362500
							}
						}
					}
					JOINT Spine2_LeftShoulder
					{
						OFFSET 0.000000 0.000000 0.000000
						CHANNELS 3 Zrotation Yrotation Xrotation
						JOINT LeftShoulder
						{
							OFFSET 5.616900 6.732201 -0.345700
							CHANNELS 3 Zrotation Yrotation Xrotation
							JOINT LeftArm
							{
								OFFSET 10.664888 -0.183372 -2.440700
								CHANNELS 3 Zrotation Yrotation Xrotation
								JOINT LeftForeArm
								{
									OFFSET 27.459126 0.000000 0.000000
									CHANNELS 3 Zrotation Yrotation Xrotation
									End Site #name: LeftHand
									{
										OFFSET 21.306858 0.000000 0.000000
									}
								}
							}
						}
					}
					JOINT Spine2_RightShoulder
					{
						OFFSET 0.000000 0.000000 0.000000
						CHANNELS 3 Zrotation Yrotation Xrotation
						JOINT RightShoulder
						{
							OFFSET -5.580300 6.737503 -0.344400
							CHANNELS 3 Zrotation Yrotation Xrotation
							JOINT RightArm
							{
								OFFSET -10.679335 -0.188484 -2.383900
								CHANNELS 3 Zrotation Yrotation Xrotation
								JOINT RightForeArm
								{
									OFFSET -27.503529 0.000000 0.000000
									CHANNELS 3 Zrotation Yrotation Xrotation
									End Site #name: RightHand
									{
										OFFSET -21.306808 0.000000 0.000000
									}
								}
							}
						}
					}
				}
			}
		}
	}
	JOINT Hips_LeftUpLeg
	{
		OFFSET 0.000000 0.000000 0.000000
		CHANNELS 3 Zrotation Yrotation Xrotation
		JOINT LeftUpLeg
		{
			OFFSET 6.857700 -6.739601 0.312100
			CHANNELS 3 Zrotation Yrotation Xrotation
			JOINT LeftLeg
			{
				OFFSET -0.367590 -34.731552 -4.572400
				CHANNELS 3 Zrotation Yrotation Xrotation
				End Site #name: LeftFoot
				{
					OFFSET 0.367590 -34.656704 -6.067400
				}
			}
		}
	}
	JOINT Hips_RightUpLeg
	{
		OFFSET 0.000000 0.000000 0.000000
		CHANNELS 3 Zrotation Yrotation Xrotation
		JOINT RightUpLeg
		{
			OFFSET -6.876100 -6.733299 0.301000
			CHANNELS 3 Zrotation Yrotation Xrotation
			JOINT RightLeg
			{
				OFFSET 0.347353 -34.795158 -4.515900
				CHANNELS 3 Zrotation Yrotation Xrotation
				End Site #name: RightFoot
				{
					OFFSET -0.347353 -34.589367 -6.070300
				}
			}
		}
	}
}
MOTION
Frames: 11
Frame Time: 0.041667
0.259467 -0.035507 -1.314992 -1.237119 4.438657 -3.831486 0.000000 -0.000000 0.000000 0.856675 1.498211 0.119661 -2.142782 0.478363 4.064363 0.000000 0.000000 0.000000 -2.476296 0.562928 3.259421 0.482258 -1.241438 7.780260 -2.254960 0.389278 4.209660 -1.176614 4.973770 -0.826323 -67.307749 -6.103732 62.090762 0.272325 -30.337222 0.067648 -2.162720 0.562564 3.280787 1.458921 10.068794 2.807064 72.635227 2.472319 47.404060 -0.049705 68.331789 0.128516 0.000000 0.000000 -0.000000 3.558673 11.597511 -10.771486 2.867130 7.551376 15.571219 0.000000 -0.000000 0.000000 -2.715149 -9.688438 -11.022090 -0.316209 -0.231042 14.875921 
0.154870 -0.037853 -1.358399 -1.174105 4.471395 -3.824315 0.000000 -0.000000 0.000000 0.893774 1.484596 0.125420 -2.118354 0.468500 4.053560 0.000000 0.000000 0.000000 -2.452161 0.553840 3.251798 0.481374 -1.244378 7.803123 -2.233986 0.383704 4.194874 -1.202001 4.990567 -0.833381 -67.324980 -6.124403 61.989902 0.271696 -30.257213 0.062464 -2.141554 0.552494 3.273724 1.439107 10.059588 2.798876 72.651484 2.470715 47.505065 -0.061764 68.108669 0.117338 0.000000 0.000000 -0.000000 3.589674 11.663648 -10.789377 2.875269 7.541438 15.562343 0.000000 -0.000000 0.000000 -2.684005 -9.675694 -11.039829 -0.309081 -0.232301 14.895662 
0.052218 -0.040346 -1.401494 -1.114687 4.503444 -3.816123 0.000000 -0.000000 0.000000 0.932739 1.468036 0.133899 -2.089661 0.456654 4.044772 0.000000 0.000000 0.000000 -2.424083 0.542868 3.248488 0.483391 -1.246675 7.828149 -2.210291 0.377623 4.182351 -1.228994 5.006846 -0.841682 -67.348550 -6.160629 61.910464 0.270565 -30.173948 0.058680 -2.116652 0.539926 3.268671 1.417465 10.042833 2.789557 72.654480 2.493018 47.585449 -0.069789 67.919464 0.109884 0.000000 0.000000 -0.000000 3.622302 11.719860 -10.809845 2.882935 7.529865 15.555483 0.000000 -0.000000 0.000000 -2.652270 -9.664200 -11.055863 -0.301431 -0.237729 14.913711 
-0.048135 -0.042893 -1.444251 -1.057105 4.532345 -3.808059 0.000000 -0.000000 0.000000 0.975041 1.449634 0.148622 -2.058194 0.443724 4.037941 0.000000 0.000000 0.000000 -2.392690 0.529754 3.247657 0.484005 -1.248975 7.856404 -2.185027 0.370492 4.171409 -1.251423 5.025798 -0.848244 -67.370516 -6.173938 61.801365 0.270720 -30.060676 0.052309 -2.088866 0.526309 3.266112 1.396938 10.020408 2.779958 72.620045 2.534018 47.647883 -0.077274 67.834279 0.104014 0.000000 0.000000 -0.000000 3.653238 11.778077 -10.829816 2.891905 7.516159 15.551238 0.000000 -0.000000 0.000000 -2.621424 -9.651837 -11.071300 -0.294911 -0.244300 14.931313 
-0.145662 -0.045512 -1.486816 -1.001932 4.557928 -3.800515 0.000000 -0.000000 0.000000 1.016366 1.429661 0.169379 -2.026669 0.429653 4.033475 0.000000 0.000000 0.000000 -2.360650 0.515278 3.250405 0.484032 -1.245809 7.886639 -2.158763 0.362757 4.161925 -1.276017 5.046295 -0.855440 -67.406134 -6.223712 61.699886 0.268681 -29.923329 0.049709 -2.061173 0.510899 3.264671 1.374746 9.992032 2.770294 72.537580 2.607697 47.659834 -0.082045 67.851994 0.101302 0.000000 0.000000 -0.000000 3.684465 11.835111 -10.848696 2.900237 7.502464 15.545349 0.000000 -0.000000 0.000000 -2.591271 -9.640584 -11.086234 -0.289575 -0.253865 14.949088 
-0.240444 -0.048200 -1.529204 -0.947693 4.581886 -3.793085 0.000000 -0.000000 0.000000 1.058552 1.407620 0.200418 -1.995680 0.415837 4.028709 0.000000 0.000000 0.000000 -2.328936 0.498986 3.253715 0.485019 -1.241861 7.919370 -2.133740 0.354938 4.153566 -1.297332 5.058900 -0.862949 -67.421132 -6.247957 61.593319 0.268254 -29.786327 0.045702 -2.034380 0.495480 3.264544 1.347694 9.960797 2.760902 72.393424 2.673904 47.620264 -0.083431 68.004022 0.102511 0.000000 0.000000 -0.000000 3.713955 11.886773 -10.867807 2.908410 7.485784 15.540200 0.000000 -0.000000 0.000000 -2.562667 -9.634463 -11.104186 -0.284291 -0.263736 14.971739 
-0.332411 -0.050934 -1.571501 -0.894431 4.603475 -3.786323 0.000000 -0.000000 0.000000 1.101998 1.386358 0.235741 -1.968062 0.402752 4.025846 0.000000 0.000000 0.000000 -2.300633 0.485078 3.258062 0.486923 -1.236242 7.948211 -2.111993 0.347381 4.146199 -1.304126 5.068093 -0.867498 -67.449285 -6.272520 61.478247 0.265943 -29.649530 0.043559 -2.010638 0.480037 3.265584 1.321378 9.923096 2.752819 72.197717 2.756648 47.533373 -0.084753 68.266496 0.103874 0.000000 0.000000 -0.000000 3.741010 11.948510 -10.885005 2.916869 7.467129 15.533755 0.000000 -0.000000 0.000000 -2.537519 -9.628536 -11.118953 -0.282492 -0.276702 14.990188 
-0.421670 -0.053694 -1.613767 -0.841179 4.625001 -3.780025 0.000000 -0.000000 0.000000 1.142220 1.367817 0.278337 -1.944295 0.390994 4.023625 0.000000 0.000000 0.000000 -2.275424 0.475349 3.260826 0.488613 -1.229055 7.971642 -2.091596 0.340322 4.142037 -1.312386 5.079353 -0.872547 -67.462694 -6.305481 61.347671 0.265565 -29.496706 0.040114 -1.990470 0.465346 3.266453 1.299850 9.886898 2.747551 71.969480 2.838103 47.422895 -0.084701 68.595693 0.107135 0.000000 0.000000 -0.000000 3.768888 12.009137 -10.899976 2.924965 7.454136 15.525167 0.000000 -0.000000 0.000000 -2.513488 -9.624071 -11.131620 -0.282620 -0.290727 15.003896 
-0.508173 -0.056496 -1.656068 -0.788294 4.642750 -3.774245 0.000000 -0.000000 0.000000 1.181049 1.351543 0.319116 -1.924466 0.381026 4.021279 0.000000 0.000000 0.000000 -2.254194 0.467016 3.263052 0.492147 -1.220780 7.990985 -2.074776 0.334167 4.136695 -1.324555 5.089991 -0.878552 -67.491046 -6.335663 61.210706 0.263976 -29.325899 0.038787 -1.972019 0.455261 3.267233 1.285231 9.853420 2.743448 71.723238 2.908810 47.299889 -0.084701 68.947413 0.109129 0.000000 0.000000 -0.000000 3.794605 12.065864 -10.911500 2.935709 7.447258 15.512006 0.000000 -0.000000 0.000000 -2.491083 -9.621024 -11.143204 -0.286789 -0.306371 15.015602 
-0.591491 -0.059310 -1.698431 -0.736143 4.660304 -3.769174 0.000000 -0.000000 0.000000 1.215497 1.339065 0.359242 -1.907560 0.372678 4.019679 0.000000 0.000000 0.000000 -2.235883 0.459552 3.265782 0.495489 -1.210185 8.004022 -2.060974 0.328909 4.131280 -1.337854 5.103275 -0.884921 -67.517128 -6.363654 61.093062 0.262604 -29.162637 0.035952 -1.956666 0.447300 3.267888 1.279115 9.826515 2.743134 71.495375 2.960529 47.218547 -0.082797 69.239166 0.112031 0.000000 0.000000 -0.000000 3.819345 12.118003 -10.921855 2.944602 7.447919 15.502227 0.000000 -0.000000 0.000000 -2.470729 -9.624349 -11.156056 -0.291082 -0.322317 15.029313 
-0.671253 -0.062183 -1.740948 -0.684516 4.679601 -3.762860 0.000000 -0.000000 0.000000 1.243722 1.328950 0.400691 -1.892730 0.365777 4.018116 0.000000 0.000000 0.000000 -2.219166 0.453537 3.268636 0.499337 -1.196889 8.008914 -2.047644 0.324567 4.127768 -1.353230 5.114384 -0.889854 -67.537894 -6.390537 60.987102 0.262040 -28.983143 0.033486 -1.941324 0.440317 3.268436 1.281305 9.807218 2.742887 71.312523 3.002623 47.174395 -0.082163 69.436012 0.113002 0.000000 0.000000 -0.000000 3.840090 12.160002 -10.936252 2.954109 7.454687 15.493644 0.000000 -0.000000 0.000000 -2.454030 -9.625154 -11.167317 -0.299211 -0.338683 15.041810 
